# xmcd
#
# Track frame offsets:
#	150
#	17332
#	31350
#	48362
#	63700
#	78792
#	98145
#	118600
#	135032
#	149662
#	167855
#
# Disc length: 2422 seconds
#
# Revision: 4
# Processed by: cddbd v1.5.1PL2 Copyright (c) Steve Scherf et al.
# Submitted via: dBpowerAMP V4.0
#
DISCID=8909740b
DTITLE=Joe Diffie - Honky Tonk Attitude
DYEAR=1993
DGENRE=Country
TTITLE0=Honky Tonk Attitude
TTITLE1=I'm Not Through Losin' You
TTITLE2=Prop Me Up Beside The Jukebox (If I Die)
TTITLE3=If I Had any Pride Left At All
TTITLE4=I Can Walk The Line (If It Ain't Too Straight)
TTITLE5=Somewhere Under The Rainbow
TTITLE6=John Deere Green
TTITLE7=In My Own Backyard
TTITLE8=Here Comes That Train
TTITLE9=And That Was The Easy Part
TTITLE10=Cold Budweiser And A Sweet Tater
EXTD=
EXTT0=
EXTT1=
EXTT2=
EXTT3=
EXTT4=
EXTT5=
EXTT6=
EXTT7=
EXTT8=
EXTT9=
EXTT10=
PLAYORDER=
